<svg width="134" height="100" viewBox="0 0 134 100" fill="none" xmlns="http://www.w3.org/2000/svg">
<path d="M12.5 0C5.59896 0 0 5.59896 0 12.5C0 16.4323 1.84896 20.1302 5 22.5L61.6667 65C64.6354 67.2135 68.6979 67.2135 71.6667 65L128.333 22.5C131.484 20.1302 133.333 16.4323 133.333 12.5C133.333 5.59896 127.734 0 120.833 0H12.5ZM0 29.1667V83.3333C0 92.526 7.47396 100 16.6667 100H116.667C125.859 100 133.333 92.526 133.333 83.3333V29.1667L76.6667 71.6667C70.7292 76.1198 62.6042 76.1198 56.6667 71.6667L0 29.1667Z" fill="#9D0DB5"/>
</svg>
